<?xml version="1.0" standalone="no"?>
<!DOCTYPE svg PUBLIC "-//W3C//DTD SVG 20010904//EN"
 "http://www.w3.org/TR/2001/REC-SVG-20010904/DTD/svg10.dtd">
<svg version="1.0" xmlns="http://www.w3.org/2000/svg"
 width="48.000000pt" height="48.000000pt" viewBox="0 0 48.000000 48.000000"
 preserveAspectRatio="xMidYMid meet">

<g transform="translate(0.000000,48.000000) scale(0.100000,-0.100000)"
fill="#000000" stroke="none">
<path d="M80 400 c-18 -18 -20 -33 -20 -160 0 -127 2 -142 20 -160 18 -18 33
-20 160 -20 187 0 180 -7 180 180 0 187 7 180 -180 180 -127 0 -142 -2 -160
-20z m90 -65 c0 -20 -5 -25 -25 -25 -20 0 -25 5 -25 25 0 20 5 25 25 25 20 0
25 -5 25 -25z m0 -130 c0 -84 0 -85 -25 -85 -25 0 -25 1 -25 85 0 84 0 85 25
85 25 0 25 -1 25 -85z m172 68 c14 -12 18 -32 18 -85 0 -66 -1 -68 -25 -68
-23 0 -25 4 -25 48 0 55 -10 75 -36 70 -16 -3 -20 -14 -22 -61 -3 -53 -5 -57
-27 -57 -25 0 -25 2 -25 84 l0 84 62 1 c44 0 68 -5 80 -16z"/>
</g>
</svg>
