<?xml version="1.0" standalone="no"?>
<!DOCTYPE svg PUBLIC "-//W3C//DTD SVG 20010904//EN"
 "http://www.w3.org/TR/2001/REC-SVG-20010904/DTD/svg10.dtd">
<svg version="1.0" xmlns="http://www.w3.org/2000/svg"
 width="48.000000pt" height="48.000000pt" viewBox="0 0 48.000000 48.000000"
 preserveAspectRatio="xMidYMid meet">

<g transform="translate(0.000000,48.000000) scale(0.100000,-0.100000)"
fill="#000000" stroke="none">
<path d="M230 285 c-92 -93 -112 -117 -100 -125 8 -5 22 -10 30 -10 22 -1 -28
-40 -51 -40 -27 0 -32 -18 -7 -26 46 -14 133 -7 178 16 75 38 129 117 130 189
0 19 8 43 17 53 16 18 16 18 -3 12 -16 -6 -17 -5 -6 7 18 20 15 27 -12 22 -13
-3 -27 0 -30 6 -14 22 -34 8 -146 -104z"/>
</g>
</svg>
